<?xml version="1.0" encoding="UTF-8" standalone="no"?>
<svg
   version="1.1"
   width="250"
   height="250"
   viewBox="0,0,250,250"
   id="svg25"
   sodipodi:docname="pawprints.svg"
   inkscape:version="1.4.2 (ebf0e940d0, 2025-05-08)"
   xmlns:inkscape="http://www.inkscape.org/namespaces/inkscape"
   xmlns:sodipodi="http://sodipodi.sourceforge.net/DTD/sodipodi-0.dtd"
   xmlns="http://www.w3.org/2000/svg"
   xmlns:svg="http://www.w3.org/2000/svg">
  <defs
     id="defs25" />
  <sodipodi:namedview
     id="namedview25"
     pagecolor="#505050"
     bordercolor="#eeeeee"
     borderopacity="1"
     inkscape:showpageshadow="0"
     inkscape:pageopacity="0"
     inkscape:pagecheckerboard="0"
     inkscape:deskcolor="#505050"
     inkscape:zoom="3.32"
     inkscape:cx="125"
     inkscape:cy="125"
     inkscape:window-width="1920"
     inkscape:window-height="1036"
     inkscape:window-x="0"
     inkscape:window-y="0"
     inkscape:window-maximized="1"
     inkscape:current-layer="svg25" />
  <g
     transform="translate(-115,-54.999999)"
     id="g25">
    <g
       data-paper-data="{&quot;isPaintingLayer&quot;:true}"
       fill="#ffffff"
       fill-rule="nonzero"
       stroke="none"
       stroke-width="1"
       stroke-linecap="butt"
       stroke-linejoin="miter"
       stroke-miterlimit="10"
       stroke-dasharray="none"
       stroke-dashoffset="0"
       style="mix-blend-mode:normal"
       id="g24">
      <g
         id="g23">
        <path
           d="m 194.54774,293.22492 6.59,-26.66 c 0.02,-0.52 -0.45,-1.13 -1.66,-2.46 -0.54,-0.59 -1.07,-1.18 -1.53,-1.8 -15.49,-20.54 -18.29,-46.08 -7.49,-68.3 3.63,-7.47 8.59,-14.07 14.73,-19.63 l 0.42,-0.32 15.78,-10.38 c 14.75,-6.84 31.33,-7.99 46.67,-3.24 l 0.27,0.09 9.05,3.63 c 3.64,1.79 7.1,3.91 10.28,6.3 23.57,17.68 32.26,50.08 20.65,77.03 -13.68,31.77 -49.77,47.27 -82.18,35.3 -0.7,-0.26 -1.63,-0.69 -2.64,-1.16 -1.15,-0.54 -3.54,-1.65 -4.32,-1.71 -0.02,0.01 -0.24,0.12 -0.77,0.39 l -0.69,0.35 c -2.61,1.26 -5.17,2.82 -7.89,4.48 -2.76,1.68 -5.62,3.43 -8.58,4.85 l -6.7,3.22 z m 15.15,-113.48 c -5.39,4.91 -9.74,10.74 -12.94,17.32 -9.63,19.81 -7.1,42.62 6.78,61.02 0.34,0.45 0.73,0.87 1.12,1.3 1.59,1.74 3.98,4.38 3.39,8.32 l -0.06,0.32 -2.92,11.83 c 0.37,-0.22 0.74,-0.45 1.12,-0.68 2.74,-1.67 5.58,-3.4 8.5,-4.81 l 0.5,-0.25 c 0.79,-0.41 1.87,-0.97 3.37,-1.14 2.18,-0.25 4.65,0.81 7.91,2.33 0.8,0.38 1.54,0.73 2.1,0.93 28.9,10.68 61.11,-3.16 73.32,-31.5 10.34,-24.02 2.59,-52.9 -18.42,-68.66 -2.8,-2.1 -5.85,-3.97 -9.05,-5.56 l -8.54,-3.42 c -13.56,-4.16 -28.21,-3.16 -41.29,2.83 l -14.88,9.83 z"
           id="path1" />
        <path
           d="m 231.38774,139.19492 4.25,-27.49 10.82,23.84 -8.32,-6.58 z"
           id="path2" />
        <path
           d="m 219.63774,157.84492 -11,-3.05 8.01,-4.27 11.09,-5.25 z m -0.3,-1.65 0.31,0.66 z"
           id="path3" />
        <path
           d="m 162.12774,209.52492 c -6.72,0 -13.33,-3.24 -18.88,-9.31 -6.02,-6.58 -10.11,-15.8 -11.51,-25.95 -1.41,-10.15 0.02,-20.13 4.02,-28.1 4.22,-8.4 10.78,-13.62 18.46,-14.68 v 0 c 7.7,-1.07 15.41,2.17 21.76,9.11 6.02,6.58 10.11,15.8 11.51,25.95 1.41,10.15 -0.02,20.13 -4.02,28.1 -4.22,8.41 -10.78,13.62 -18.46,14.69 -0.96,0.13 -1.92,0.2 -2.88,0.2 z m -6.95,-71.12 c -5.33,0.74 -10.01,4.61 -13.16,10.89 -3.37,6.72 -4.56,15.24 -3.35,24 1.21,8.76 4.67,16.64 9.74,22.19 4.74,5.19 10.29,7.64 15.63,6.9 5.33,-0.74 10.01,-4.61 13.16,-10.89 3.37,-6.72 4.56,-15.24 3.35,-24 -1.21,-8.76 -4.67,-16.64 -9.74,-22.19 -4.75,-5.19 -10.31,-7.64 -15.63,-6.9 z"
           id="path4" />
        <path
           d="m 268.62774,142.38492 c -14.34,0 -27.68,-15.1 -30.47,-35.26 -2.97,-21.46 7.11,-40.66 22.49,-42.79 7.69,-1.07 15.41,2.17 21.76,9.11 6.02,6.58 10.11,15.8 11.51,25.95 1.41,10.15 -0.02,20.13 -4.02,28.1 -4.22,8.4 -10.78,13.62 -18.46,14.68 v 0 c -0.94,0.13 -1.87,0.19 -2.8,0.19 z m -5.15,-71.23 c -0.63,0 -1.25,0.04 -1.88,0.13 -11.35,1.57 -18.91,17.55 -16.51,34.89 2.4,17.34 14.03,30.66 25.37,29.09 v 0 c 5.33,-0.74 10.01,-4.61 13.16,-10.89 3.37,-6.72 4.56,-15.24 3.35,-24 -1.21,-8.76 -4.67,-16.64 -9.74,-22.19 -4.19,-4.58 -9.01,-7.03 -13.75,-7.03 z"
           id="path5" />
        <path
           d="m 206.59774,150.97492 c -6.72,0 -13.33,-3.24 -18.88,-9.31 -6.02,-6.58 -10.11,-15.8 -11.51,-25.95 -1.41,-10.15 0.02,-20.13 4.02,-28.1 4.22,-8.41 10.78,-13.62 18.46,-14.68 7.7,-1.07 15.41,2.17 21.76,9.11 6.02,6.58 10.11,15.8 11.51,25.95 2.97,21.46 -7.11,40.66 -22.48,42.79 v 0 c -0.96,0.13 -1.92,0.2 -2.88,0.2 z m -5.07,-71.24 c -0.63,0 -1.25,0.04 -1.88,0.13 -5.33,0.74 -10.01,4.61 -13.16,10.89 -3.37,6.72 -4.56,15.24 -3.35,24 1.21,8.76 4.67,16.64 9.74,22.19 4.75,5.19 10.3,7.64 15.63,6.9 v 0 c 11.35,-1.57 18.91,-17.55 16.51,-34.89 -1.21,-8.76 -4.67,-16.64 -9.74,-22.19 -4.19,-4.58 -9.01,-7.03 -13.75,-7.03 z"
           id="path6" />
        <path
           d="m 322.95774,187.24492 c -14.34,0 -27.68,-15.1 -30.47,-35.26 -2.97,-21.46 7.11,-40.66 22.48,-42.79 15.39,-2.14 30.3,13.6 33.27,35.06 2.97,21.47 -7.11,40.66 -22.48,42.79 -0.94,0.13 -1.87,0.19 -2.8,0.19 z m -5.19,-71.24 c -0.61,0 -1.22,0.04 -1.83,0.13 -11.35,1.57 -18.91,17.55 -16.51,34.89 2.4,17.34 14.04,30.65 25.37,29.09 11.35,-1.57 18.91,-17.55 16.51,-34.89 -2.27,-16.4 -12.8,-29.21 -23.54,-29.21 z"
           id="path7" />
        <path
           d="m 266.70774,152.31492 -10.98,-8.96 11.16,0.87 c 0.32,0.03 0.63,0.05 0.95,0.06 l 12.8,0.48 -13.93,7.54 z"
           id="path8" />
        <g
           id="g10">
          <path
             d="m 187.65774,149.00492 2.02,34.61 c -5,7.51 -8.59,15.96 -10.41,24.95 -3.91,3.28 -8.47,5.48 -13.51,6.18 -18.37,2.54 -36.06,-15.28 -39.45,-39.74 -3.38,-24.45 8.8,-46.42 27.16,-48.96 7.86,-1.09 15.6,1.58 22.15,6.89 3.05,6.51 7.2,12.02 12.04,16.06 z m -3.64,18.01 c -2.71,-19.56 -15.86,-33.94 -29.32,-32.08 -13.46,1.87 -22.21,19.29 -19.5,38.84 2.71,19.55 15.86,33.94 29.32,32.08 13.46,-1.86 22.21,-19.29 19.5,-38.84 z"
             id="path9" />
          <path
             d="m 162.20774,218.49492 c -8.64,0 -17.13,-3.83 -24.27,-11.02 -7.99,-8.05 -13.35,-19.41 -15.09,-31.98 -1.74,-12.57 0.33,-24.96 5.83,-34.88 5.68,-10.24 14.32,-16.65 24.32,-18.04 8.5,-1.18 17.31,1.54 24.84,7.64 l 0.63,0.51 0.34,0.73 c 2.8,5.99 6.64,11.13 11.11,14.85 l 1.16,0.97 2.18,37.29 -0.65,0.97 c -4.86,7.3 -8.18,15.28 -9.89,23.71 l -0.24,1.2 -0.94,0.79 c -4.61,3.86 -9.75,6.2 -15.28,6.97 -1.34,0.19 -2.69,0.28 -4.03,0.28 z m -5.23,-89.19 c -1.01,0 -2.02,0.07 -3.04,0.21 -7.76,1.08 -14.56,6.22 -19.15,14.5 -4.77,8.6 -6.55,19.44 -5.02,30.52 1.54,11.08 6.2,21.03 13.12,28.01 6.66,6.71 14.61,9.82 22.37,8.74 3.85,-0.53 7.49,-2.1 10.83,-4.66 0.22,-1 0.46,-2 0.73,-2.99 -3.43,3.13 -7.44,5.09 -11.83,5.7 -7.69,1.07 -15.41,-2.17 -21.76,-9.11 -6.02,-6.58 -10.11,-15.8 -11.51,-25.95 -1.41,-10.15 0.02,-20.13 4.02,-28.1 4.22,-8.4 10.78,-13.62 18.46,-14.68 7.5,-1.04 15.02,2.01 21.27,8.59 -0.96,-1.56 -1.86,-3.2 -2.68,-4.89 -5,-3.87 -10.4,-5.87 -15.83,-5.87 z m 0.08,8.97 c -0.63,0 -1.25,0.04 -1.88,0.13 -5.33,0.74 -10.01,4.61 -13.16,10.89 -3.37,6.72 -4.56,15.24 -3.35,24 1.21,8.76 4.67,16.64 9.74,22.19 4.75,5.19 10.31,7.64 15.63,6.9 v 0 c 5.33,-0.74 10.01,-4.61 13.16,-10.89 3.37,-6.72 4.56,-15.24 3.35,-24 -1.21,-8.76 -4.67,-16.64 -9.74,-22.19 -4.19,-4.58 -9.01,-7.03 -13.75,-7.03 z m 23.95,9.17 c 1.33,2.27 2.5,4.7 3.47,7.26 l -0.23,-4.03 c -1.12,-1.01 -2.2,-2.08 -3.24,-3.23 z"
             id="path10" />
        </g>
        <g
           id="g12">
          <path
             d="m 326.50774,192.46492 c -5.03,0.69 -9.99,-0.18 -14.63,-2.25 -3.87,-7.52 -9.09,-14.22 -15.27,-19.85 l -4.82,-35.59 h -0.02 c 4.48,-6.44 7.31,-14.79 7.96,-23.99 4.12,-3.75 9.02,-6.26 14.49,-7.02 18.37,-2.54 36.06,15.29 39.45,39.74 3.38,24.45 -8.8,46.42 -27.16,48.96 z m 18.27,-47.72 c -2.71,-19.56 -15.86,-33.94 -29.32,-32.08 -13.46,1.87 -22.21,19.29 -19.5,38.84 2.71,19.55 15.86,33.94 29.32,32.08 13.46,-1.86 22.21,-19.29 19.5,-38.84 z"
             id="path11" />
          <path
             d="m 323.05774,196.21492 c -4.21,0 -8.44,-0.93 -12.6,-2.79 l -1.12,-0.5 -0.56,-1.09 c -3.64,-7.06 -8.53,-13.4 -14.52,-18.86 l -0.94,-0.86 -4.29,-31.65 -9.26,5.45 9.13,-13.12 c 4.21,-6.04 6.75,-13.73 7.35,-22.23 l 0.1,-1.4 1.04,-0.94 c 4.78,-4.35 10.44,-7.08 16.37,-7.9 20.3,-2.81 39.74,16.36 43.4,42.72 v 0 c 3.65,26.37 -9.87,50.1 -30.14,52.91 -1.31,0.18 -2.62,0.27 -3.93,0.27 z m -8.66,-8.73 c 3.89,1.54 7.79,2.05 11.63,1.52 16.45,-2.28 27.29,-22.47 24.17,-45.01 v 0 c -3.12,-22.54 -19.05,-39.02 -35.5,-36.75 -4.19,0.58 -8.08,2.35 -11.6,5.26 -0.09,0.95 -0.2,1.9 -0.34,2.83 3.45,-3.32 7.59,-5.49 12.21,-6.13 15.39,-2.14 30.3,13.6 33.27,35.06 2.97,21.47 -7.11,40.66 -22.48,42.79 -4.44,0.61 -8.84,-0.26 -12.93,-2.33 0.54,0.91 1.06,1.83 1.57,2.77 z m 3.37,-71.48 c -0.61,0 -1.22,0.04 -1.83,0.13 -11.35,1.57 -18.91,17.55 -16.51,34.89 2.4,17.34 14.04,30.65 25.37,29.09 11.35,-1.57 18.91,-17.55 16.51,-34.89 -2.27,-16.4 -12.8,-29.21 -23.54,-29.21 z"
             id="path12" />
        </g>
        <g
           id="g14">
          <path
             d="m 237.28774,123.74492 c 0.79,-5.23 0.88,-10.8 0.09,-16.51 -0.79,-5.71 -2.39,-11.04 -4.57,-15.86 2.59,-17.14 13,-30.51 27.07,-32.46 18.37,-2.54 36.06,15.29 39.45,39.74 0.57,4.15 0.67,8.22 0.39,12.14 -0.64,9.2 -3.48,17.55 -7.96,23.99 l -24.06,13.01 c -0.36,-0.01 -0.73,-0.04 -1.09,-0.07 l -29.25,-23.84 c -0.02,-0.05 -0.06,-0.14 -0.06,-0.14 z m 4.33,-17.09 c 2.71,19.55 15.86,33.94 29.32,32.08 13.46,-1.86 22.21,-19.28 19.5,-38.84 -2.71,-19.56 -15.86,-33.94 -29.32,-32.08 -13.46,1.87 -22.21,19.29 -19.5,38.84 z"
             id="path13" />
          <path
             d="m 268.52774,151.32492 -0.96,-0.04 c -0.41,-0.02 -0.82,-0.05 -1.24,-0.08 l -1.09,-0.09 -30.74,-25.06 -0.76,-1.69 0.09,-1.16 c 0.77,-5.11 0.8,-10.32 0.08,-15.5 -0.72,-5.18 -2.16,-10.19 -4.29,-14.9 l -0.43,-0.94 0.15,-1.02 c 2.92,-19.38 14.72,-33.28 30.05,-35.41 10,-1.39 20.05,2.43 28.3,10.75 7.99,8.05 13.35,19.41 15.09,31.98 0.58,4.19 0.72,8.52 0.42,12.87 -0.69,9.77 -3.66,18.67 -8.58,25.75 l -0.48,0.68 -25.63,13.86 z m -3.26,-9.21 2.23,1.82 3.01,-1.63 c -1.76,0.16 -3.51,0.1 -5.23,-0.19 z m -3.67,-70.84 c -11.35,1.57 -18.91,17.55 -16.51,34.89 2.4,17.34 14.03,30.66 25.37,29.09 5.33,-0.74 10.01,-4.61 13.16,-10.89 3.37,-6.72 4.56,-15.24 3.35,-24 -1.21,-8.76 -4.67,-16.64 -9.74,-22.19 -4.75,-5.19 -10.31,-7.64 -15.63,-6.9 z m 1.92,-7.13 c 6.72,0 13.33,3.24 18.88,9.31 6.02,6.58 10.11,15.8 11.51,25.95 1.41,10.15 -0.02,20.13 -4.02,28.1 -1.27,2.53 -2.75,4.77 -4.41,6.69 l 3.87,-2.09 c 3.93,-5.93 6.31,-13.37 6.89,-21.56 0.27,-3.86 0.15,-7.7 -0.37,-11.41 -1.54,-11.08 -6.2,-21.03 -13.12,-28.01 -6.66,-6.71 -14.61,-9.82 -22.37,-8.74 -11.75,1.63 -21.27,13.04 -23.93,28.52 0.52,1.21 1,2.43 1.44,3.67 1.57,-15.94 10.48,-28.53 22.76,-30.24 0.96,-0.13 1.92,-0.2 2.88,-0.2 z m -22.5,58.2 2.72,2.22 c -0.9,-1.67 -1.72,-3.44 -2.44,-5.28 -0.07,1.02 -0.16,2.04 -0.28,3.06 z"
             id="path14" />
        </g>
        <g
           id="g16">
          <path
             d="m 187.64774,148.98492 c -4.84,-4.04 -8.99,-9.55 -12.04,-16.06 -2.32,-4.97 -4.01,-10.52 -4.83,-16.47 -3.38,-24.45 8.8,-46.42 27.16,-48.96 14.08,-1.95 27.73,8.09 34.88,23.88 2.18,4.82 3.78,10.15 4.57,15.86 0.79,5.72 0.7,11.28 -0.09,16.51 -0.01,0.06 -0.02,0.11 -0.02,0.16 l -19.13,29.79 c -0.04,0.03 -0.13,0.07 -0.13,0.07 l -30.59,-8.65 0.23,3.88 z m -7.97,-33.75 c 2.71,19.55 15.86,33.94 29.32,32.08 13.46,-1.86 22.21,-19.29 19.5,-38.84 -2.71,-19.56 -15.86,-33.94 -29.32,-32.08 -13.46,1.87 -22.21,19.29 -19.5,38.84 z"
             id="path15" />
          <path
             d="m 218.45774,157.41492 -1.39,-0.29 -25.85,-7.31 0.41,7.04 -6.21,-5.18 c -5.25,-4.38 -9.73,-10.35 -12.97,-17.27 -2.55,-5.46 -4.28,-11.34 -5.13,-17.47 -1.74,-12.57 0.33,-24.96 5.83,-34.88 5.68,-10.24 14.32,-16.65 24.32,-18.04 15.34,-2.14 30.46,8.04 38.55,25.9 2.41,5.32 4.04,10.98 4.85,16.82 0.81,5.85 0.78,11.74 -0.09,17.51 l -0.11,0.74 -0.43,0.79 -19.67,30.64 -2.09,0.99 z m -3.55,-8.17 1.64,0.46 1.31,-2.04 c -0.95,0.6 -1.93,1.13 -2.95,1.58 z m -15.25,-69.38 c -5.33,0.74 -10.01,4.61 -13.16,10.89 -3.37,6.72 -4.56,15.24 -3.35,24 1.21,8.76 4.67,16.64 9.74,22.19 4.75,5.19 10.3,7.64 15.63,6.9 11.35,-1.57 18.91,-17.55 16.51,-34.89 -1.21,-8.76 -4.67,-16.64 -9.74,-22.19 -4.75,-5.19 -10.31,-7.64 -15.63,-6.9 z m -15.26,60.75 3.19,0.9 c -5.94,-6.57 -9.98,-15.73 -11.38,-25.8 -1.41,-10.15 0.02,-20.13 4.02,-28.1 4.22,-8.4 10.78,-13.62 18.46,-14.68 v 0 c 7.7,-1.07 15.41,2.17 21.76,9.11 6.02,6.58 10.11,15.8 11.51,25.95 0.92,6.68 0.59,13.14 -0.78,18.93 l 2.74,-4.27 c 0.69,-5.01 0.68,-9.98 0,-14.93 -0.72,-5.18 -2.16,-10.19 -4.29,-14.9 -6.67,-14.73 -19.2,-23.51 -31.2,-21.85 -7.76,1.08 -14.57,6.22 -19.15,14.5 -4.77,8.6 -6.55,19.44 -5.02,30.52 0.75,5.43 2.28,10.64 4.54,15.47 1.57,3.36 3.46,6.44 5.61,9.16 z"
             id="path16" />
        </g>
        <g
           id="g18">
          <path
             d="m 267.01774,163.78492 c -14.72,-4.56 -30.51,-3.26 -44.16,3.07 l 12,-7.93 13.84,-2.48 18.33,7.34 z"
             id="path17" />
          <path
             d="m 224.33774,170.02492 -3.4,-6.1 12.6,-8.33 15.53,-2.78 19.26,7.71 -2.34,6.6 c -13.68,-4.24 -28.48,-3.21 -41.66,2.9 z"
             id="path18" />
        </g>
        <g
           id="g20">
          <path
             d="m 296.57774,170.38492 c 6.18,5.64 11.39,12.34 15.27,19.85 2.82,5.47 4.95,11.37 6.21,17.6 l 1.29,9.32 c -0.24,1.63 0.08,3.47 0.08,5.14 -0.05,31.11 -21.33,59.41 -51.4,67.81 -1.72,0.48 -3.65,0.68 -5.27,1.37 l -8.75,1.21 -7.73,0.04 c -9.3,-0.26 -18.36,-2.62 -26.86,-6.22 l -25.2,14.46 -2.33,0.32 c -1.83,-0.49 -3.01,-1.38 -3.98,-3.01 l -0.32,-2.33 7.09,-28.14 c -5.83,-7.16 -10.5,-15.27 -13.29,-24.12 l -2.02,-7.15 c -0.28,-3.08 -1.06,-6.25 -1.29,-9.32 -0.49,-6.37 -0.04,-12.63 1.18,-18.66 1.82,-8.98 5.41,-17.44 10.41,-24.95 l 0.29,4.98 17.57,-11.61 c -5.61,5.08 -10.39,11.29 -13.93,18.56 -10.55,21.68 -7.21,45.64 7.13,64.66 1.64,2.17 4.31,3.96 3.85,6.99 l -4.86,19.66 c 5.59,-2.69 10.92,-6.66 16.47,-9.33 0.94,-0.45 1.65,-0.94 2.75,-1.07 1.94,-0.22 6.29,2.29 8.4,3.07 30.88,11.41 64.87,-3.48 77.75,-33.4 11.07,-25.72 2.77,-56.12 -19.54,-72.85 -3.11,-2.34 -6.37,-4.31 -9.72,-5.96 l 21.53,8.62 -0.75,-5.55 z"
             id="path19" />
          <path
             d="m 191.69774,304.84492 -0.68,-0.18 c -2.72,-0.72 -4.66,-2.19 -6.1,-4.61 l -0.36,-0.61 -0.51,-3.7 6.83,-27.12 c -5.86,-7.49 -10.17,-15.52 -12.81,-23.89 l -2.17,-7.88 c -0.12,-1.34 -0.35,-2.72 -0.59,-4.18 -0.28,-1.69 -0.57,-3.43 -0.7,-5.2 -0.5,-6.51 -0.08,-13.11 1.24,-19.62 1.89,-9.32 5.57,-18.14 10.93,-26.2 l 5.8,-8.72 0.55,9.37 12.5,-8.26 4.28,5.52 c -5.48,4.95 -9.9,10.84 -13.13,17.49 -9.63,19.81 -7.1,42.62 6.78,61.02 0.34,0.45 0.73,0.87 1.12,1.3 1.59,1.74 3.98,4.38 3.39,8.32 l -0.06,0.32 -2.92,11.83 c 0.37,-0.22 0.74,-0.45 1.12,-0.68 2.74,-1.67 5.58,-3.4 8.5,-4.81 l 0.5,-0.25 c 0.79,-0.41 1.87,-0.97 3.37,-1.14 2.18,-0.25 4.65,0.81 7.91,2.33 0.8,0.38 1.54,0.73 2.1,0.93 28.9,10.68 61.11,-3.16 73.32,-31.5 10.34,-24.02 2.59,-52.9 -18.42,-68.66 -2.84,-2.13 -5.92,-4.02 -9.17,-5.62 l 2.85,-6.39 15.95,6.39 -1.24,-9.14 7.12,6.49 c 6.61,6.02 12,13.03 16.03,20.83 3.04,5.9 5.24,12.13 6.53,18.52 l 1.4,10.03 -0.08,0.5 c -0.1,0.66 -0.04,1.57 0.02,2.52 0.05,0.71 0.09,1.42 0.09,2.1 -0.05,33.05 -22.24,62.32 -53.96,71.18 -0.71,0.2 -1.45,0.36 -2.2,0.51 -1,0.21 -1.94,0.41 -2.64,0.7 l -0.43,0.18 -9.67,1.31 -7.73,0.04 c -8.69,-0.24 -17.6,-2.2 -26.63,-5.82 l -24.3,13.94 -3.7,0.51 z m -0.41,-7.84 c 0.26,0.33 0.54,0.54 0.93,0.71 l 0.87,-0.12 26.12,-14.99 1.6,0.68 c 8.77,3.71 17.38,5.71 25.59,5.94 l 7.38,-0.04 8.1,-1.12 c 1.19,-0.45 2.39,-0.7 3.48,-0.92 0.59,-0.12 1.18,-0.25 1.75,-0.4 28.25,-7.89 48.79,-35 48.84,-64.45 0,-0.53 -0.04,-1.07 -0.08,-1.62 -0.07,-1.07 -0.15,-2.26 -0.03,-3.49 l -1.23,-8.86 c -1.13,-5.54 -3.11,-11.16 -5.85,-16.48 -2.03,-3.93 -4.45,-7.65 -7.23,-11.11 l 0.09,0.7 -3.99,-1.6 c 15.8,18.38 20.44,44.96 10.66,67.68 -13.68,31.77 -49.77,47.27 -82.18,35.3 -0.7,-0.26 -1.63,-0.69 -2.64,-1.16 -1.15,-0.54 -3.54,-1.65 -4.32,-1.71 -0.02,0.01 -0.24,0.12 -0.77,0.39 l -0.69,0.35 c -2.61,1.26 -5.17,2.82 -7.89,4.48 -2.76,1.68 -5.62,3.43 -8.58,4.85 l -6.7,3.22 6.59,-26.66 c 0.02,-0.52 -0.45,-1.13 -1.66,-2.46 -0.54,-0.59 -1.07,-1.18 -1.53,-1.8 -15.49,-20.54 -18.29,-46.08 -7.49,-68.3 0.38,-0.79 0.78,-1.56 1.19,-2.33 l -4,2.65 c -2.24,4.77 -3.9,9.77 -4.95,14.94 -1.19,5.87 -1.57,11.83 -1.12,17.7 0.11,1.46 0.36,2.98 0.63,4.58 0.23,1.41 0.48,2.87 0.63,4.35 l 1.94,6.84 c 2.51,7.94 6.77,15.66 12.64,22.85 l 1.11,1.36 -7.35,29.19 0.12,0.86 z"
             id="path20" />
        </g>
        <g
           id="g22">
          <path
             d="m 291.75774,134.78492 0.02,-0.01 4.83,35.6 0.75,5.55 -21.53,-8.62 -8.8,-3.52 -18.33,-7.34 -13.83,2.48 -12.01,7.93 -15.32,10.12 -17.57,11.61 -0.29,-4.98 -2.02,-34.61 -0.23,-3.89 30.59,8.65 0.08,0.02 0.05,-0.08 19.13,-29.8 0.04,-0.05 0.04,0.04 29.25,23.84 0.49,0.4 0.61,-0.33 z"
             id="path21" />
          <path
             d="m 186.82774,194.85492 -3.18,-54.46 32.9,9.3 19.88,-30.97 3.07,2.37 27.99,22.82 27.06,-14.63 0.7,5.01 6.38,47.11 -53.31,-21.35 -12.14,2.17 -49.36,32.62 z m 4.38,-45.04 1.9,32.5 40.42,-26.71 15.53,-2.78 44.01,17.62 -4.09,-30.18 -22.29,12.06 -28.56,-23.28 -18.44,28.72 -2.54,-0.6 -25.95,-7.34 z"
             id="path22" />
        </g>
      </g>
    </g>
  </g>
</svg>
